<?xml version="1.0" encoding="utf-8"?>
<!-- Generator: Adobe Illustrator 21.0.0, SVG Export Plug-In . SVG Version: 6.00 Build 0)  -->
<svg version="1.1" id="Ebene_1" xmlns="http://www.w3.org/2000/svg" xmlns:xlink="http://www.w3.org/1999/xlink" x="0px" y="0px"
	 viewBox="0 0 99.9 99.9" style="enable-background:new 0 0 99.9 99.9;" xml:space="preserve">
<style type="text/css">
	.st0{fill:#282828;}
	.st1{fill:#FFFFFF;}
</style>
<title>kk_dreieck</title>
<path class="st0" d="M0,50C0,22.3,22.4,0,50,0s50,22.4,50,50s-22.4,50-50,50S0,77.6,0,50"/>
<path class="st1" d="M33.8,20.7L79.4,50c0.5,0.4,0.6,1.2,0.2,1.7c-0.1,0.1-0.1,0.1-0.2,0.2L33.8,81.1c-0.5,0.3-1.2-0.2-1.2-0.9V21.6
	C32.6,20.9,33.2,20.4,33.8,20.7"/>
<path class="st0" d="M55.5,65.6L34,51.8c-0.5-0.4-0.6-1.2-0.2-1.7c0.1-0.1,0.1-0.1,0.2-0.2l21.5-13.8c0.5-0.3,1.2,0.2,1.2,0.9v27.6
	C56.7,65.4,56,65.9,55.5,65.6"/>
<path class="st0" d="M67.6,57.9l-9.5-6.1c-0.5-0.4-0.6-1.2-0.2-1.7C58,50.1,58,50,58.1,50l9.5-6.1c0.5-0.3,1.2,0.2,1.2,0.9v12.1
	C68.7,57.7,68.1,58.2,67.6,57.9"/>
</svg>
