<svg id="Ebene_1" data-name="Ebene 1" xmlns="http://www.w3.org/2000/svg" viewBox="0 0 514.68 108.58"><defs><style>.cls-1{fill:#3a3a3a;}.cls-2{fill:#600;}.cls-3{fill:#fff;}</style></defs><title>kk_logo</title><path class="cls-1" d="M17.45,180.71l-3.23,6.07v20.39H3.79V140.78H14.23v28.74h0.19l13.47-28.74H38.32L23.81,170.37l14.51,36.8H27.6Z" transform="translate(-3.76 -140.02)"/><path class="cls-1" d="M43.44,140.78H53.87v56.91H71v9.49H43.44V140.78Z" transform="translate(-3.76 -140.02)"/><path class="cls-1" d="M111.25,207.17H100.72l-1.8-12H86.11l-1.8,12H74.73l10.62-66.39h15.27ZM87.44,186.12H97.5l-4.93-33.58H92.37Z" transform="translate(-3.76 -140.02)"/><path class="cls-1" d="M125.95,159.08h-0.19v48.09h-9.39V140.78h13.09L140,180.52h0.19V140.78h9.29v66.39H138.75Z" transform="translate(-3.76 -140.02)"/><path class="cls-1" d="M172.32,170.18h14.61v21.06c0,10.62-5.31,16.69-15.56,16.69s-15.56-6.07-15.56-16.69V156.71c0-10.62,5.31-16.69,15.56-16.69s15.56,6.07,15.56,16.69v6.45h-9.86V156c0-4.74-2.09-6.54-5.41-6.54s-5.41,1.8-5.41,6.54V191.9c0,4.74,2.09,6.45,5.41,6.45s5.41-1.71,5.41-6.45V179.67h-4.74v-9.49Z" transform="translate(-3.76 -140.02)"/><path class="cls-2" d="M207,180.71l-3.22,6.07v20.39H193.38V140.78h10.43v28.74H204l13.47-28.74H227.9l-14.51,29.59,14.51,36.8H217.19Z" transform="translate(-3.76 -140.02)"/><path class="cls-2" d="M243.45,168.76h14.32v9.49H243.45v19.44h18v9.49H233V140.78h28.45v9.49h-18v18.5Z" transform="translate(-3.76 -140.02)"/><path class="cls-2" d="M267.64,140.78h10.43v56.91h17.17v9.49h-27.6V140.78Z" transform="translate(-3.76 -140.02)"/><path class="cls-2" d="M300.26,140.78H310.7v56.91h17.17v9.49h-27.6V140.78Z" transform="translate(-3.76 -140.02)"/><path class="cls-2" d="M343.32,168.76h14.32v9.49H343.32v19.44h18v9.49H332.89V140.78h28.45v9.49h-18v18.5Z" transform="translate(-3.76 -140.02)"/><path class="cls-2" d="M389.22,207.17c-0.57-1.71-.95-2.75-0.95-8.16V188.58c0-6.17-2.09-8.44-6.83-8.44h-3.6v27H367.41V140.78h15.75c10.81,0,15.46,5,15.46,15.27v5.22c0,6.83-2.18,11.19-6.83,13.37v0.19c5.22,2.18,6.92,7.11,6.92,14v10.24c0,3.23.09,5.6,1.14,8.06H389.22Zm-11.38-56.91v20.39h4.08c3.89,0,6.26-1.71,6.26-7v-6.54c0-4.74-1.61-6.83-5.31-6.83h-5Z" transform="translate(-3.76 -140.02)"/><path class="cls-1" d="M5,229.83H5.06a3.94,3.94,0,0,1,.8-1.48,5.65,5.65,0,0,1,1.42-1.2,7,7,0,0,1,1.86-.77,7.52,7.52,0,0,1,2.13-.24v1.2a5.68,5.68,0,0,0-2.16.19,5.23,5.23,0,0,0-2.31,1.39,11,11,0,0,0-.77.91,4.39,4.39,0,0,0-.55,1,6.16,6.16,0,0,0-.35,1.2A10.35,10.35,0,0,0,5,233.58v8.85H3.76V226.24H5v3.59Z" transform="translate(-3.76 -140.02)"/><path class="cls-1" d="M12.49,234.5v0.19a9.56,9.56,0,0,0,.38,2.71A6.91,6.91,0,0,0,14,239.66a5.32,5.32,0,0,0,1.86,1.54,5.7,5.7,0,0,0,2.61.57,5.56,5.56,0,0,0,3.85-1.28,6.68,6.68,0,0,0,2-3.54h1.2a7.25,7.25,0,0,1-2.31,4.35,7,7,0,0,1-4.71,1.51,7.15,7.15,0,0,1-3.13-.65,6.38,6.38,0,0,1-2.24-1.76,7.49,7.49,0,0,1-1.34-2.65,11.8,11.8,0,0,1-.44-3.29,11.53,11.53,0,0,1,.46-3.26,8.18,8.18,0,0,1,1.37-2.74,6.79,6.79,0,0,1,2.28-1.89,6.94,6.94,0,0,1,3.23-.71,6.86,6.86,0,0,1,3,.63,6.31,6.31,0,0,1,2.19,1.72,7.65,7.65,0,0,1,1.34,2.52,10.07,10.07,0,0,1,.46,3.07c0,0.11,0,.23,0,0.36s0,0.25,0,.33H12.49Zm11.9-1A9.69,9.69,0,0,0,24,231a6.21,6.21,0,0,0-1.12-2.08,5.59,5.59,0,0,0-1.8-1.43,5.29,5.29,0,0,0-2.42-.54,5.66,5.66,0,0,0-2.56.55,5.78,5.78,0,0,0-1.86,1.45A6.44,6.44,0,0,0,13,231a9.8,9.8,0,0,0-.51,2.46H24.39Z" transform="translate(-3.76 -140.02)"/><path class="cls-1" d="M40.45,231.25a4.69,4.69,0,0,0-.55-1.89A4.22,4.22,0,0,0,38.72,228a5.36,5.36,0,0,0-1.69-.82,7.24,7.24,0,0,0-2.06-.28,5.65,5.65,0,0,0-2.68.61,5.89,5.89,0,0,0-2,1.64,7.42,7.42,0,0,0-1.2,2.33,9,9,0,0,0-.41,2.69,11.45,11.45,0,0,0,.38,3,6.86,6.86,0,0,0,1.17,2.41,5.42,5.42,0,0,0,2,1.59,6.2,6.2,0,0,0,2.74.57,5.67,5.67,0,0,0,2.09-.38,5.61,5.61,0,0,0,1.7-1A5.37,5.37,0,0,0,40,238.76a6.47,6.47,0,0,0,.63-2h1.2a7.6,7.6,0,0,1-.79,2.58,6.33,6.33,0,0,1-1.51,1.91,6.56,6.56,0,0,1-2.08,1.18,8.06,8.06,0,0,1-5.84-.3,6.46,6.46,0,0,1-2.3-1.91A8.09,8.09,0,0,1,28,237.44a12.34,12.34,0,0,1-.42-3.26A10.38,10.38,0,0,1,28,231a7.85,7.85,0,0,1,1.43-2.65,6.79,6.79,0,0,1,2.33-1.79,7.3,7.3,0,0,1,3.18-.66,8.9,8.9,0,0,1,2.47.33,6.39,6.39,0,0,1,2,1A5.17,5.17,0,0,1,41,228.87a6,6,0,0,1,.69,2.38h-1.2Z" transform="translate(-3.76 -140.02)"/><path class="cls-1" d="M43.67,234.34a10.64,10.64,0,0,1,.49-3.26,8.19,8.19,0,0,1,1.43-2.69,6.8,6.8,0,0,1,2.33-1.84,7.8,7.8,0,0,1,6.36,0,6.81,6.81,0,0,1,2.33,1.84A8.19,8.19,0,0,1,58,231.08a10.66,10.66,0,0,1,.49,3.26,10.81,10.81,0,0,1-.49,3.28,8,8,0,0,1-1.43,2.69,6.89,6.89,0,0,1-2.33,1.83,7.81,7.81,0,0,1-6.36,0,6.88,6.88,0,0,1-2.33-1.83,8,8,0,0,1-1.43-2.69A10.79,10.79,0,0,1,43.67,234.34Zm1.2,0a9.46,9.46,0,0,0,.41,2.79,7.54,7.54,0,0,0,1.2,2.38,5.82,5.82,0,0,0,2,1.65,6.14,6.14,0,0,0,5.35,0,5.84,5.84,0,0,0,2-1.65,7.59,7.59,0,0,0,1.2-2.38,9.7,9.7,0,0,0,0-5.57,7.58,7.58,0,0,0-1.2-2.38,5.83,5.83,0,0,0-2-1.65,6.14,6.14,0,0,0-5.35,0,5.81,5.81,0,0,0-2,1.65,7.53,7.53,0,0,0-1.2,2.38A9.46,9.46,0,0,0,44.86,234.34Z" transform="translate(-3.76 -140.02)"/><path class="cls-1" d="M62.41,229.83H62.5a3.94,3.94,0,0,1,.8-1.48,5.65,5.65,0,0,1,1.42-1.2,7,7,0,0,1,1.86-.77,7.52,7.52,0,0,1,2.13-.24v1.2a5.68,5.68,0,0,0-2.16.19,5.23,5.23,0,0,0-2.31,1.39,11,11,0,0,0-.77.91,4.39,4.39,0,0,0-.55,1,6.16,6.16,0,0,0-.35,1.2,10.35,10.35,0,0,0-.16,1.58v8.85h-1.2V226.24h1.2v3.59Z" transform="translate(-3.76 -140.02)"/><path class="cls-1" d="M82.09,239H82a7.35,7.35,0,0,1-2.52,2.88,7.52,7.52,0,0,1-6.83.27,6.21,6.21,0,0,1-2.17-1.86,8,8,0,0,1-1.26-2.69,12.83,12.83,0,0,1,0-6.55,7.63,7.63,0,0,1,1.34-2.69,6.42,6.42,0,0,1,2.25-1.79,7.16,7.16,0,0,1,3.18-.66,7,7,0,0,1,1.92.27,6.72,6.72,0,0,1,1.75.77,5.55,5.55,0,0,1,2.31,3h0.06v-9.92h1.2v22.49h-1.2V239Zm-6,2.8a5.34,5.34,0,0,0,2.66-.63,5.67,5.67,0,0,0,1.86-1.67,7.38,7.38,0,0,0,1.1-2.38,10.4,10.4,0,0,0,.36-2.72,10.51,10.51,0,0,0-.36-2.76,7.8,7.8,0,0,0-1.09-2.39,5.37,5.37,0,0,0-1.87-1.68,5.52,5.52,0,0,0-2.69-.63,5.67,5.67,0,0,0-2.74.61,5.45,5.45,0,0,0-1.87,1.65,6.9,6.9,0,0,0-1.07,2.39,11.78,11.78,0,0,0-.33,2.8,10.5,10.5,0,0,0,.36,2.76,7.38,7.38,0,0,0,1.1,2.38,5.46,5.46,0,0,0,1.87,1.65A5.61,5.61,0,0,0,76.07,241.77Z" transform="translate(-3.76 -140.02)"/><path class="cls-1" d="M87,223.19v-3.24h1.2v3.24H87Zm0,19.24V226.24h1.2v16.19H87Z" transform="translate(-3.76 -140.02)"/><path class="cls-1" d="M91.79,226.24H93v3.46H93a5.19,5.19,0,0,1,.9-1.62,6,6,0,0,1,3-2,7,7,0,0,1,1.86-.25,7.36,7.36,0,0,1,2.41.35,4.73,4.73,0,0,1,1.62.91,4.42,4.42,0,0,1,1,1.28,5.92,5.92,0,0,1,.52,1.43,8.46,8.46,0,0,1,.19,1.4q0,0.68,0,1.18v10h-1.2V232.2q0-.6-0.09-1.51a4.6,4.6,0,0,0-.55-1.75,4,4,0,0,0-1.39-1.43,4.72,4.72,0,0,0-2.57-.6,5.7,5.7,0,0,0-2.46.5,5.31,5.31,0,0,0-1.83,1.4A6.17,6.17,0,0,0,93.38,231a9,9,0,0,0-.39,2.72v8.76h-1.2V226.24Z" transform="translate(-3.76 -140.02)"/><path class="cls-1" d="M121.3,226.24v15.34a11,11,0,0,1-.31,2.63,5.85,5.85,0,0,1-1.08,2.25,5.32,5.32,0,0,1-2.12,1.56,8.69,8.69,0,0,1-3.42.58,10.52,10.52,0,0,1-2.42-.27,5.83,5.83,0,0,1-2-.85,4.34,4.34,0,0,1-1.37-1.54,5.49,5.49,0,0,1-.58-2.38h1.2a4.34,4.34,0,0,0,.54,1.83,3.83,3.83,0,0,0,1.15,1.24,4.86,4.86,0,0,0,1.59.71,7.79,7.79,0,0,0,1.89.22,6.8,6.8,0,0,0,2.79-.5,4.82,4.82,0,0,0,1.78-1.31,4.72,4.72,0,0,0,.93-1.83,8.14,8.14,0,0,0,.27-2.06v-3.72H120a6.44,6.44,0,0,1-2.31,2.74,6.37,6.37,0,0,1-3.54.94,7.2,7.2,0,0,1-3.1-.61,6,6,0,0,1-2.17-1.7,7.33,7.33,0,0,1-1.29-2.54,11.17,11.17,0,0,1-.42-3.15,10.1,10.1,0,0,1,.46-3.06,7.61,7.61,0,0,1,1.34-2.54,6.47,6.47,0,0,1,2.19-1.73,7.09,7.09,0,0,1,6.55.33,5.43,5.43,0,0,1,2.31,2.77h0.06v-3.37h1.17Zm-7.09.66a5.24,5.24,0,0,0-2.57.6,5.43,5.43,0,0,0-1.8,1.58,7.15,7.15,0,0,0-1.07,2.22,9,9,0,0,0-.36,2.54,9.8,9.8,0,0,0,.36,2.69,6.38,6.38,0,0,0,1.1,2.22,5.38,5.38,0,0,0,1.83,1.5,5.46,5.46,0,0,0,2.5.55,5.58,5.58,0,0,0,2.58-.57,5.35,5.35,0,0,0,1.84-1.54,6.77,6.77,0,0,0,1.1-2.22,9.67,9.67,0,0,0,0-5.24,6.58,6.58,0,0,0-1.1-2.22,5.44,5.44,0,0,0-1.84-1.53A5.58,5.58,0,0,0,114.21,226.91Z" transform="translate(-3.76 -140.02)"/><path class="cls-1" d="M123.44,246.37v-1.57h15.75v1.57H123.44Z" transform="translate(-3.76 -140.02)"/><path class="cls-1" d="M141.14,226.24h1.2v3.31h0.06a4.33,4.33,0,0,1,.66-1.43,5.11,5.11,0,0,1,1.15-1.18,5.47,5.47,0,0,1,3.26-1.07,6.09,6.09,0,0,1,2,.3,4.78,4.78,0,0,1,1.45.79,3.92,3.92,0,0,1,.94,1.1,4.22,4.22,0,0,1,.47,1.24h0.06a5.89,5.89,0,0,1,1.94-2.57,5.39,5.39,0,0,1,3.2-.87,6,6,0,0,1,2,.33,4.27,4.27,0,0,1,1.61,1,4.62,4.62,0,0,1,1.06,1.72,7.19,7.19,0,0,1,.38,2.46v11.05h-1.2V231.35a5.18,5.18,0,0,0-.47-2.42,3.79,3.79,0,0,0-1.12-1.34,3.17,3.17,0,0,0-1.29-.57,6.4,6.4,0,0,0-1-.11,5.34,5.34,0,0,0-2,.38,4.31,4.31,0,0,0-1.61,1.13,5.32,5.32,0,0,0-1.05,1.87,8,8,0,0,0-.38,2.57v9.57h-1.2V231.35a5.36,5.36,0,0,0-.46-2.41,3.64,3.64,0,0,0-1.07-1.34,3.21,3.21,0,0,0-1.26-.57,5.67,5.67,0,0,0-1-.13,5,5,0,0,0-3.43,1.42,5.42,5.42,0,0,0-1.23,1.86,6.93,6.93,0,0,0-.47,2.68v9.57h-1.2V226.24Z" transform="translate(-3.76 -140.02)"/><path class="cls-1" d="M166.18,223.19v-3.24h1.2v3.24h-1.2Zm0,19.24V226.24h1.2v16.19h-1.2Z" transform="translate(-3.76 -140.02)"/><path class="cls-1" d="M175.56,233.93l-5.92-7.68h1.67l5.07,6.77,5.1-6.77H183l-5.86,7.68,6.39,8.5h-1.64l-5.54-7.59-5.67,7.59H169.2Z" transform="translate(-3.76 -140.02)"/><path class="cls-1" d="M185.39,223.19v-3.24h1.2v3.24h-1.2Zm0,19.24V226.24h1.2v16.19h-1.2Z" transform="translate(-3.76 -140.02)"/><path class="cls-1" d="M190.18,226.24h1.2v3.46h0.06a5.19,5.19,0,0,1,.9-1.62,6,6,0,0,1,3-2,7,7,0,0,1,1.86-.25,7.36,7.36,0,0,1,2.41.35,4.73,4.73,0,0,1,1.62.91,4.42,4.42,0,0,1,1,1.28,5.92,5.92,0,0,1,.52,1.43,8.46,8.46,0,0,1,.19,1.4q0,0.68,0,1.18v10h-1.2V232.2q0-.6-0.09-1.51a4.6,4.6,0,0,0-.55-1.75,4,4,0,0,0-1.39-1.43,4.72,4.72,0,0,0-2.57-.6,5.7,5.7,0,0,0-2.46.5,5.31,5.31,0,0,0-1.83,1.4,6.17,6.17,0,0,0-1.15,2.14,9,9,0,0,0-.39,2.72v8.76h-1.2V226.24Z" transform="translate(-3.76 -140.02)"/><path class="cls-1" d="M219.69,226.24v15.34a11,11,0,0,1-.31,2.63,5.85,5.85,0,0,1-1.08,2.25,5.32,5.32,0,0,1-2.12,1.56,8.69,8.69,0,0,1-3.42.58,10.52,10.52,0,0,1-2.42-.27,5.83,5.83,0,0,1-2-.85,4.34,4.34,0,0,1-1.37-1.54,5.49,5.49,0,0,1-.58-2.38h1.2a4.34,4.34,0,0,0,.54,1.83,3.83,3.83,0,0,0,1.15,1.24,4.86,4.86,0,0,0,1.59.71,7.79,7.79,0,0,0,1.89.22,6.8,6.8,0,0,0,2.79-.5,4.82,4.82,0,0,0,1.78-1.31,4.72,4.72,0,0,0,.93-1.83,8.14,8.14,0,0,0,.27-2.06v-3.72h-0.09a6.44,6.44,0,0,1-2.31,2.74,6.37,6.37,0,0,1-3.54.94,7.2,7.2,0,0,1-3.1-.61,6,6,0,0,1-2.17-1.7A7.33,7.33,0,0,1,206,237a11.17,11.17,0,0,1-.42-3.15,10.1,10.1,0,0,1,.46-3.06,7.61,7.61,0,0,1,1.34-2.54,6.47,6.47,0,0,1,2.19-1.73,7.09,7.09,0,0,1,6.55.33,5.43,5.43,0,0,1,2.31,2.77h0.06v-3.37h1.17Zm-7.09.66a5.24,5.24,0,0,0-2.57.6,5.43,5.43,0,0,0-1.8,1.58,7.15,7.15,0,0,0-1.07,2.22,9,9,0,0,0-.36,2.54,9.8,9.8,0,0,0,.36,2.69,6.38,6.38,0,0,0,1.1,2.22,5.38,5.38,0,0,0,1.83,1.5,5.46,5.46,0,0,0,2.5.55,5.58,5.58,0,0,0,2.58-.57,5.35,5.35,0,0,0,1.84-1.54,6.77,6.77,0,0,0,1.1-2.22,9.67,9.67,0,0,0,0-5.24A6.58,6.58,0,0,0,217,229a5.44,5.44,0,0,0-1.84-1.53A5.58,5.58,0,0,0,212.6,226.91Z" transform="translate(-3.76 -140.02)"/><path class="cls-1" d="M221.83,246.37v-1.57h15.75v1.57H221.83Z" transform="translate(-3.76 -140.02)"/><path class="cls-1" d="M239.53,226.24h1.2v3.31h0.06a4.33,4.33,0,0,1,.66-1.43,5.11,5.11,0,0,1,1.15-1.18,5.47,5.47,0,0,1,3.26-1.07,6.09,6.09,0,0,1,2,.3,4.78,4.78,0,0,1,1.45.79,3.92,3.92,0,0,1,.94,1.1,4.22,4.22,0,0,1,.47,1.24h0.06a5.89,5.89,0,0,1,1.94-2.57,5.39,5.39,0,0,1,3.2-.87,6,6,0,0,1,2,.33,4.27,4.27,0,0,1,1.61,1,4.62,4.62,0,0,1,1.05,1.72,7.19,7.19,0,0,1,.38,2.46v11.05h-1.2V231.35a5.18,5.18,0,0,0-.47-2.42,3.79,3.79,0,0,0-1.12-1.34,3.17,3.17,0,0,0-1.29-.57,6.4,6.4,0,0,0-1-.11,5.34,5.34,0,0,0-2,.38,4.31,4.31,0,0,0-1.61,1.13,5.32,5.32,0,0,0-1.05,1.87,8,8,0,0,0-.38,2.57v9.57h-1.2V231.35a5.36,5.36,0,0,0-.46-2.41,3.64,3.64,0,0,0-1.07-1.34,3.21,3.21,0,0,0-1.26-.57,5.67,5.67,0,0,0-1-.13,5,5,0,0,0-3.43,1.42,5.42,5.42,0,0,0-1.23,1.86,6.93,6.93,0,0,0-.47,2.68v9.57h-1.2V226.24Z" transform="translate(-3.76 -140.02)"/><path class="cls-1" d="M275.11,239.22h-0.06a5,5,0,0,1-.82,1.37,5.8,5.8,0,0,1-1.31,1.15,6.47,6.47,0,0,1-1.75.79,7.68,7.68,0,0,1-2.14.28,6.32,6.32,0,0,1-4-1.12,4.12,4.12,0,0,1-1.42-3.45,4,4,0,0,1,2-3.73,6.15,6.15,0,0,1,1.92-.74,18.8,18.8,0,0,1,2-.31l1.86-.16a10.92,10.92,0,0,0,2-.3,2.59,2.59,0,0,0,1.12-.57,1.62,1.62,0,0,0,.47-0.93,8.9,8.9,0,0,0,.09-1.42,3,3,0,0,0-.25-1.23,2.77,2.77,0,0,0-.79-1,3.9,3.9,0,0,0-1.39-.69,7.4,7.4,0,0,0-2.08-.25,5.46,5.46,0,0,0-3.51,1.07,4.24,4.24,0,0,0-1.46,3.24h-1.2a5.3,5.3,0,0,1,1.72-4,6.83,6.83,0,0,1,4.52-1.34A6.48,6.48,0,0,1,275,227a3.77,3.77,0,0,1,1.34,3v9.42c0,0.23,0,.46,0,0.69a2.27,2.27,0,0,0,.11.63,0.94,0.94,0,0,0,.31.46,1,1,0,0,0,.63.17,5.81,5.81,0,0,0,.88-0.09v1a3.77,3.77,0,0,1-1,.13,2.88,2.88,0,0,1-1.15-.19,1.5,1.5,0,0,1-.65-0.5,1.85,1.85,0,0,1-.3-0.74,5.1,5.1,0,0,1-.08-0.93v-0.85Zm0-6a2.27,2.27,0,0,1-1.34.72,16.79,16.79,0,0,1-2,.28l-2,.19q-0.88.1-1.76,0.27a5.14,5.14,0,0,0-1.59.58,3.26,3.26,0,0,0-1.15,1.12,3.45,3.45,0,0,0-.44,1.84A3.14,3.14,0,0,0,266,240.9a5,5,0,0,0,3.12.87,6.14,6.14,0,0,0,3.24-.74,5.75,5.75,0,0,0,1.83-1.7,5.26,5.26,0,0,0,.8-1.86,8,8,0,0,0,.17-1.21v-3Z" transform="translate(-3.76 -140.02)"/><path class="cls-1" d="M280.31,237a4.94,4.94,0,0,0,.5,2,4.76,4.76,0,0,0,2.8,2.41,6.43,6.43,0,0,0,2,.32,10.92,10.92,0,0,0,1.68-.14,5.86,5.86,0,0,0,1.67-.52,3.46,3.46,0,0,0,1.28-1.05,2.8,2.8,0,0,0,.5-1.72,2.53,2.53,0,0,0-.82-2,5.74,5.74,0,0,0-2.06-1.07,20.91,20.91,0,0,0-2.68-.61,13.82,13.82,0,0,1-2.68-.71,5.45,5.45,0,0,1-2.06-1.34,4.19,4.19,0,0,1-.28-4.54,4,4,0,0,1,1.37-1.28,6.22,6.22,0,0,1,1.87-.68,10.79,10.79,0,0,1,2.08-.21,9.44,9.44,0,0,1,2.36.28,5.1,5.1,0,0,1,1.91.91,4.35,4.35,0,0,1,1.26,1.61,5.55,5.55,0,0,1,.46,2.36h-1.2a4.5,4.5,0,0,0-.36-1.89,3.29,3.29,0,0,0-1-1.28,4.38,4.38,0,0,0-1.53-.72,7.25,7.25,0,0,0-1.89-.24,8.94,8.94,0,0,0-1.65.16,4.79,4.79,0,0,0-1.5.54,3.37,3.37,0,0,0-1.09,1,2.44,2.44,0,0,0-.42,1.45,2.46,2.46,0,0,0,.47,1.58,3.37,3.37,0,0,0,1.24,1,8.55,8.55,0,0,0,1.73.58l1.94,0.44q1.2,0.22,2.25.52a6.36,6.36,0,0,1,1.83.82,3.72,3.72,0,0,1,1.21,1.34,4.36,4.36,0,0,1,.44,2.08,3.7,3.7,0,0,1-.6,2.17,4.63,4.63,0,0,1-1.51,1.37,6.44,6.44,0,0,1-2,.72,12.11,12.11,0,0,1-2.19.21,8.72,8.72,0,0,1-2.57-.36,5.81,5.81,0,0,1-2.06-1.1,5.25,5.25,0,0,1-1.39-1.81,6.1,6.1,0,0,1-.54-2.49h1.2Z" transform="translate(-3.76 -140.02)"/><path class="cls-1" d="M300.4,227.28h-3.53v11.31a4.36,4.36,0,0,0,.22,1.54,1.76,1.76,0,0,0,.68.87,2.4,2.4,0,0,0,1.1.36,11.21,11.21,0,0,0,1.5,0v1a11.24,11.24,0,0,1-1.78,0,3.57,3.57,0,0,1-1.53-.47,2.77,2.77,0,0,1-1.06-1.18,4.45,4.45,0,0,1-.33-2.17V227.28h-3v-1h3v-5h1.2v5h3.53v1Z" transform="translate(-3.76 -140.02)"/><path class="cls-1" d="M302.2,234.5v0.19a9.56,9.56,0,0,0,.38,2.71,6.9,6.9,0,0,0,1.12,2.27,5.32,5.32,0,0,0,1.86,1.54,5.7,5.7,0,0,0,2.61.57A5.56,5.56,0,0,0,312,240.5a6.68,6.68,0,0,0,2-3.54h1.2a7.24,7.24,0,0,1-2.32,4.35,7,7,0,0,1-4.71,1.51,7.15,7.15,0,0,1-3.13-.65,6.38,6.38,0,0,1-2.24-1.76,7.46,7.46,0,0,1-1.34-2.65,11.78,11.78,0,0,1-.44-3.29,11.53,11.53,0,0,1,.46-3.26,8.17,8.17,0,0,1,1.37-2.74,6.78,6.78,0,0,1,2.28-1.89,6.93,6.93,0,0,1,3.23-.71,6.86,6.86,0,0,1,3,.63,6.32,6.32,0,0,1,2.19,1.72,7.66,7.66,0,0,1,1.34,2.52,10.06,10.06,0,0,1,.46,3.07c0,0.11,0,.23,0,0.36s0,0.25,0,.33H302.2Zm11.9-1a9.69,9.69,0,0,0-.44-2.5,6.22,6.22,0,0,0-1.12-2.08,5.6,5.6,0,0,0-1.8-1.43,5.28,5.28,0,0,0-2.42-.54,5.67,5.67,0,0,0-2.56.55,5.78,5.78,0,0,0-1.86,1.45,6.43,6.43,0,0,0-1.17,2.09,9.8,9.8,0,0,0-.5,2.46H314.1Z" transform="translate(-3.76 -140.02)"/><path class="cls-1" d="M319.17,229.83h0.09a3.94,3.94,0,0,1,.8-1.48,5.64,5.64,0,0,1,1.42-1.2,7,7,0,0,1,1.86-.77,7.52,7.52,0,0,1,2.13-.24v1.2a5.69,5.69,0,0,0-2.16.19,5.23,5.23,0,0,0-2.31,1.39,11.14,11.14,0,0,0-.77.91,4.39,4.39,0,0,0-.55,1,6.09,6.09,0,0,0-.35,1.2,10.42,10.42,0,0,0-.16,1.58v8.85H318V226.24h1.2v3.59Z" transform="translate(-3.76 -140.02)"/><path class="cls-1" d="M327.08,223.19v-3.24h1.2v3.24h-1.2Zm0,19.24V226.24h1.2v16.19h-1.2Z" transform="translate(-3.76 -140.02)"/><path class="cls-1" d="M331.83,226.24H333v3.46h0.06a5.2,5.2,0,0,1,.9-1.62,6,6,0,0,1,3-2,7,7,0,0,1,1.86-.25,7.36,7.36,0,0,1,2.41.35,4.73,4.73,0,0,1,1.62.91,4.43,4.43,0,0,1,1,1.28,5.92,5.92,0,0,1,.52,1.43,8.56,8.56,0,0,1,.19,1.4q0,0.68,0,1.18v10h-1.2V232.2q0-.6-0.09-1.51a4.6,4.6,0,0,0-.55-1.75,4,4,0,0,0-1.39-1.43,4.72,4.72,0,0,0-2.57-.6,5.71,5.71,0,0,0-2.46.5,5.32,5.32,0,0,0-1.83,1.4,6.16,6.16,0,0,0-1.15,2.14,9,9,0,0,0-.39,2.72v8.76h-1.2V226.24Z" transform="translate(-3.76 -140.02)"/><path class="cls-1" d="M361.34,226.24v15.34a10.94,10.94,0,0,1-.31,2.63,5.86,5.86,0,0,1-1.08,2.25,5.32,5.32,0,0,1-2.12,1.56,8.69,8.69,0,0,1-3.42.58,10.52,10.52,0,0,1-2.42-.27,5.83,5.83,0,0,1-2-.85,4.33,4.33,0,0,1-1.37-1.54,5.47,5.47,0,0,1-.58-2.38h1.2a4.35,4.35,0,0,0,.54,1.83,3.84,3.84,0,0,0,1.15,1.24,4.87,4.87,0,0,0,1.59.71,7.8,7.8,0,0,0,1.89.22,6.8,6.8,0,0,0,2.79-.5,4.81,4.81,0,0,0,1.78-1.31,4.71,4.71,0,0,0,.93-1.83,8.16,8.16,0,0,0,.27-2.06v-3.72h-0.09a6.44,6.44,0,0,1-2.31,2.74,6.37,6.37,0,0,1-3.54.94,7.2,7.2,0,0,1-3.1-.61,6,6,0,0,1-2.17-1.7,7.33,7.33,0,0,1-1.29-2.54,11.15,11.15,0,0,1-.42-3.15,10.1,10.1,0,0,1,.46-3.06,7.59,7.59,0,0,1,1.34-2.54,6.46,6.46,0,0,1,2.19-1.73,7.09,7.09,0,0,1,6.55.33,5.43,5.43,0,0,1,2.31,2.77h0.06v-3.37h1.17Zm-7.09.66a5.25,5.25,0,0,0-2.57.6,5.43,5.43,0,0,0-1.79,1.58,7.14,7.14,0,0,0-1.07,2.22,9,9,0,0,0-.36,2.54,9.79,9.79,0,0,0,.36,2.69,6.38,6.38,0,0,0,1.1,2.22,5.38,5.38,0,0,0,1.83,1.5,5.46,5.46,0,0,0,2.5.55,5.58,5.58,0,0,0,2.58-.57,5.35,5.35,0,0,0,1.84-1.54,6.79,6.79,0,0,0,1.1-2.22,9.67,9.67,0,0,0,0-5.24,6.59,6.59,0,0,0-1.1-2.22,5.44,5.44,0,0,0-1.84-1.53A5.58,5.58,0,0,0,354.26,226.91Z" transform="translate(-3.76 -140.02)"/><path class="cls-1" d="M418.53,191.89a50,50,0,1,1,50,50,50,50,0,0,1-50-50" transform="translate(-3.76 -140.02)"/><path class="cls-3" d="M452.23,162.63l45.66,29.26a1.18,1.18,0,0,1,0,1.84L452.23,223c-0.53.34-1.16-.16-1.16-0.92V163.55c0-.77.63-1.26,1.16-0.92" transform="translate(-3.76 -140.02)"/><path class="cls-1" d="M474,207.53l-21.53-13.8a1.18,1.18,0,0,1,0-1.84L474,178.09c0.53-.34,1.16.16,1.16,0.92v27.59c0,0.77-.63,1.26-1.16.92" transform="translate(-3.76 -140.02)"/><path class="cls-1" d="M486.1,199.8l-9.46-6.06a1.18,1.18,0,0,1,0-1.84l9.46-6.06c0.53-.34,1.16.16,1.16,0.92v12.13c0,0.77-.63,1.26-1.16.92" transform="translate(-3.76 -140.02)"/></svg>